<svg xmlns="http://www.w3.org/2000/svg" width="50" height="75" viewBox="0 0 588 624" version="1.1"><path d="M 386.501 370.750 C 380.579 381.063, 375.090 390.540, 374.304 391.811 C 372.402 394.885, 369.589 394.255, 369.176 390.663 C 368.924 388.472, 368.478 387.997, 367.176 388.532 C 362.153 390.597, 298.067 411.470, 270.666 419.966 C 253.157 425.394, 238.638 430.028, 238.403 430.264 C 238.167 430.500, 239.555 432.369, 241.487 434.418 C 246.059 439.265, 246.051 442.272, 241.456 446.606 C 237.494 450.343, 229.935 453, 223.266 453 C 216.621 453, 205.444 450.148, 203.449 447.943 C 201.635 445.939, 199 445.317, 199 446.893 C 199 447.384, 199.613 448.021, 200.362 448.309 C 201.111 448.596, 204.559 452.582, 208.025 457.166 C 211.491 461.750, 214.816 465.406, 215.413 465.292 C 219.813 464.450, 237.694 458.825, 243 456.614 C 249.434 453.933, 268.610 448.294, 274.607 447.319 C 276.856 446.954, 277.884 447.254, 278.325 448.405 C 279.266 450.857, 275.397 452.785, 263.875 455.606 C 258.169 457.002, 249.675 459.660, 245 461.511 C 240.325 463.362, 232.113 466.088, 226.750 467.570 C 221.387 469.051, 217 470.568, 217 470.940 C 217 471.313, 217.563 472.376, 218.250 473.303 C 219.418 474.878, 220.059 474.855, 228 472.958 C 232.675 471.841, 244.375 468.502, 254 465.538 C 263.625 462.573, 276.225 458.713, 282 456.958 C 297.721 452.182, 315 445.901, 315 444.963 C 315 443.136, 310.787 443, 304.113 444.611 C 298.259 446.024, 296.810 446.087, 295.488 444.990 C 292.799 442.758, 295.895 440.950, 306.670 438.460 C 312.076 437.210, 325.844 432.556, 337.265 428.118 C 365.941 416.975, 376.247 413.878, 383.677 414.171 C 388.646 414.368, 390.043 414.038, 392.012 412.204 C 393.313 410.992, 394.907 410, 395.554 410 C 396.201 410, 397.970 409.025, 399.484 407.834 C 401.810 406.004, 402.547 405.861, 404.228 406.910 C 406.838 408.541, 412 406.576, 412 403.951 C 412 401.067, 415.922 398.712, 430.266 392.983 C 441.460 388.512, 443.632 387.310, 443.239 385.806 C 442.979 384.813, 442.701 384, 442.620 384 C 442.540 384, 437.080 386.296, 430.487 389.102 C 416.487 395.060, 414.503 395.623, 413.457 393.930 C 412.133 391.787, 417.281 388.431, 428.691 384 C 434.636 381.691, 439.885 379.439, 440.356 378.995 C 440.827 378.551, 440.386 374.983, 439.377 371.065 L 437.542 363.942 434.521 364.582 C 428.946 365.765, 417.610 371.585, 402.836 380.849 C 386.624 391.015, 382.513 392.913, 380.681 391.081 C 379.791 390.191, 379.957 389.151, 381.381 386.707 C 383.479 383.104, 397.961 352, 397.540 352 C 397.391 352, 392.424 360.438, 386.501 370.750 M 392 400.147 C 390.625 400.708, 381.876 403.159, 372.558 405.593 C 353.202 410.649, 348.500 412.586, 348.500 415.500 C 348.500 418.054, 349.814 417.927, 362.500 414.151 C 368 412.514, 378.575 409.513, 386 407.483 C 399.431 403.811, 402.851 402.187, 401.559 400.096 C 400.724 398.744, 395.367 398.773, 392 400.147 M 313 412.183 C 311.625 412.700, 303.300 415.320, 294.500 418.006 C 285.700 420.692, 273.100 425.148, 266.500 427.909 L 254.500 432.929 259.661 432.965 C 276.193 433.078, 317.911 417.626, 315.845 412.155 C 315.639 411.610, 314.495 411.621, 313 412.183 M 194.430 458 C 195.086 466.845, 196.808 472.895, 201.070 481.329 C 206.158 491.399, 213.844 500.772, 219.402 503.687 L 222.303 505.208 221.696 500.078 C 220.352 488.737, 209.197 467.225, 198.742 455.814 L 193.873 450.500 194.430 458" stroke="none" fill="#aa7950" fill-rule="evenodd"/><path d="M 401.817 344.750 C 398.597 348.212, 395.089 353.676, 396.739 352.659 C 397.583 352.139, 397.789 352.388, 397.384 353.442 C 397.057 354.293, 396.393 354.743, 395.907 354.442 C 395.421 354.142, 395.319 354.668, 395.681 355.612 C 396.125 356.769, 395.962 357.095, 395.181 356.612 C 394.401 356.130, 394.238 356.456, 394.681 357.612 C 395.109 358.727, 394.954 359.090, 394.239 358.648 C 393.634 358.274, 392.813 358.494, 392.415 359.138 C 391.963 359.869, 392.124 360.041, 392.845 359.595 C 393.480 359.203, 394 359.131, 394 359.435 C 394 360.469, 384.817 380.481, 382.169 385.216 C 378.882 391.094, 379.869 392.858, 385.419 391.027 C 388.995 389.847, 389.006 389.825, 386.928 388.142 L 384.834 386.447 390.304 373.974 C 393.312 367.113, 397.823 357.113, 400.329 351.750 C 402.834 346.387, 404.769 342, 404.629 342 C 404.489 342, 403.223 343.238, 401.817 344.750 M 417 368.405 C 410.125 370.235, 402.461 372.634, 399.970 373.736 C 395.871 375.550, 395.193 376.361, 392.860 382.241 L 390.281 388.740 403.891 380.196 C 411.376 375.497, 420.650 370.171, 424.500 368.362 C 428.350 366.552, 431.050 365.073, 430.500 365.075 C 429.950 365.076, 423.875 366.575, 417 368.405 M 440.477 378.452 C 439.939 379.219, 434.636 381.726, 428.691 384.022 C 417.292 388.426, 412.130 391.783, 413.457 393.930 C 414.503 395.623, 416.487 395.060, 430.487 389.102 C 437.080 386.296, 442.592 384, 442.737 384 C 442.882 384, 443 384.750, 443 385.667 C 443 386.583, 443.252 387.081, 443.561 386.772 C 443.870 386.464, 443.522 384.152, 442.788 381.635 C 441.780 378.180, 441.214 377.400, 440.477 378.452 M 431 399.277 C 415.553 406.041, 413.007 406.831, 412.985 404.867 C 412.973 403.849, 412.773 403.808, 412.202 404.707 C 411.781 405.370, 409.957 406.535, 408.150 407.295 C 406.343 408.055, 404.895 408.974, 404.932 409.338 C 404.969 409.702, 405 410.444, 405 410.986 C 405 412.318, 393.822 417.832, 392.250 417.276 C 391.563 417.032, 391 416.276, 391 415.596 C 391 414.753, 388.852 414.299, 384.271 414.173 C 375.975 413.944, 366.527 416.747, 337.265 428.118 C 325.844 432.556, 312.076 437.210, 306.670 438.460 C 295.895 440.950, 292.799 442.758, 295.488 444.990 C 296.810 446.087, 298.259 446.024, 304.113 444.611 C 310.787 443, 315 443.136, 315 444.963 C 315 445.901, 297.721 452.182, 282 456.958 C 276.225 458.713, 263.625 462.573, 254 465.538 C 234.281 471.611, 220.105 475.183, 218.837 474.399 C 218.368 474.110, 218.518 475.044, 219.171 476.475 C 220 478.296, 220.828 478.869, 221.928 478.385 C 226.711 476.278, 265.815 464.980, 267.500 465.218 C 268.723 465.390, 269.500 466.261, 269.500 467.458 C 269.500 469.755, 268.627 470.101, 247 476.372 C 238.475 478.843, 229.618 481.683, 227.319 482.683 C 223.142 484.498, 223.139 484.504, 224.473 487.637 L 225.809 490.774 232.654 488.503 C 238.644 486.515, 239.648 486.417, 240.681 487.713 C 242.591 490.108, 241.352 491.355, 234.483 493.945 C 228.271 496.288, 228 496.531, 228 499.763 C 228 502.506, 228.326 503.037, 229.750 502.613 C 230.713 502.326, 238.475 500.042, 247 497.538 C 266.436 491.829, 275.115 488.791, 301.966 478.294 C 319.003 471.634, 365.555 452.384, 366.763 451.500 C 366.908 451.394, 366.345 449.677, 365.513 447.686 C 363.345 442.496, 363.577 437.423, 366.099 434.901 C 368.718 432.282, 372.913 432.721, 387.913 437.185 C 395.849 439.546, 398.704 440.023, 399.913 439.187 C 400.786 438.584, 403.750 436.766, 406.500 435.147 C 409.250 433.528, 418.475 427.319, 427 421.348 C 444.845 408.850, 446.744 406.451, 445.328 398.193 L 444.500 393.366 431 399.277 M 392 400.147 C 390.625 400.708, 381.876 403.159, 372.558 405.593 C 353.202 410.649, 348.500 412.586, 348.500 415.500 C 348.500 418.054, 349.814 417.927, 362.500 414.151 C 368 412.514, 378.575 409.513, 386 407.483 C 399.431 403.811, 402.851 402.187, 401.559 400.096 C 400.724 398.744, 395.367 398.773, 392 400.147 M 203.837 444.492 L 200.346 445.500 203.065 447.736 C 206.176 450.296, 216.343 452.963, 223.068 452.985 C 227.660 453, 237.524 450.575, 238.365 449.224 C 238.613 448.826, 235.370 448.619, 231.158 448.765 C 224.934 448.980, 221.986 448.510, 215.414 446.257 C 208.667 443.943, 206.751 443.651, 203.837 444.492 M 271 447.920 C 270.175 448.392, 265.450 449.782, 260.500 451.008 C 255.550 452.234, 248.125 454.602, 244 456.270 C 236.644 459.245, 218.036 465.016, 214.919 465.290 C 213.502 465.414, 213.493 465.697, 214.833 468.031 L 216.326 470.634 227.913 467.237 C 234.286 465.369, 242.650 462.551, 246.500 460.974 C 250.350 459.398, 258.169 456.974, 263.875 455.587 C 275.212 452.832, 279.263 450.850, 278.361 448.498 C 277.738 446.874, 273.418 446.535, 271 447.920 M 286 457.082 C 278.318 460.034, 275.726 462.123, 276.676 464.597 C 277.465 466.654, 279.598 466.282, 288.470 462.539 C 296.797 459.027, 297.992 457.900, 295.972 455.466 C 294.490 453.681, 295.115 453.580, 286 457.082" stroke="none" fill="#865c39" fill-rule="evenodd"/><path d="M 260 44.888 C 260 48.693, 255.610 63.727, 251.966 72.402 C 250.371 76.198, 244.807 86.998, 239.600 96.402 C 227.066 119.040, 226.528 121.193, 227.566 144.500 C 228.006 154.400, 228.342 166.230, 228.311 170.790 C 228.280 175.349, 228.415 178.918, 228.611 178.722 C 229.746 177.588, 232.060 161.434, 232.941 148.500 C 233.503 140.250, 234.676 130.800, 235.549 127.500 C 236.421 124.200, 240.883 113.625, 245.465 104 C 255.183 83.587, 257.498 77.563, 260.068 66 C 262.093 56.887, 262.671 42, 261 42 C 260.450 42, 260 43.300, 260 44.888 M 345.221 59.519 C 345.489 64.459, 346.383 70.376, 347.209 72.668 C 348.625 76.602, 355.854 87.480, 356.573 86.760 C 356.757 86.577, 355.759 83.293, 354.355 79.463 C 352.465 74.304, 351.765 70.331, 351.652 64.128 C 351.502 55.866, 351.455 55.721, 348.117 53.147 L 344.733 50.538 345.221 59.519 M 187.851 148.535 C 188.726 169.421, 181.162 186.919, 151.659 232.250 C 147.454 238.713, 144.440 244, 144.963 244 C 146.162 244, 161.242 227.108, 169.628 216.371 C 185.040 196.638, 191.686 180.975, 193.564 159.961 C 194.146 153.446, 193.935 151.720, 192.009 147.243 C 188.355 138.748, 187.452 139.028, 187.851 148.535 M 396 155.451 C 396 172.849, 387.524 187.903, 376.828 189.500 C 374.448 189.856, 371.284 189.683, 369.798 189.116 C 365.447 187.457, 367.440 190.673, 372.298 193.152 C 382.987 198.605, 395.446 191.803, 399.133 178.500 C 401.426 170.225, 399.594 150, 396.551 150 C 396.248 150, 396 152.453, 396 155.451 M 301.531 166.949 C 301.209 167.471, 301.888 170.700, 303.042 174.123 C 304.195 177.547, 305.859 185.332, 306.741 191.424 C 308.065 200.584, 308.149 204.230, 307.226 212.500 C 305.375 229.075, 299.591 242.840, 292.715 247.033 C 286.790 250.645, 279.439 249.118, 276.090 243.578 C 273.838 239.854, 271 228.761, 271 223.686 C 271 216.683, 266.006 220.161, 259.060 232 C 250.308 246.918, 248.507 251.622, 239.466 283.164 C 232.754 306.584, 227.361 318.336, 219.361 326.976 C 208.704 338.488, 200.013 341.128, 190.716 335.679 C 186.184 333.024, 181.578 327.307, 180.501 323 C 180.157 321.625, 178.990 319.421, 177.908 318.103 L 175.942 315.706 173.564 317.940 C 168.731 322.480, 160.784 340.895, 155.843 359 C 153.674 366.951, 153.553 368.855, 153.977 388.500 C 154.853 429.106, 154.580 440.967, 152.622 447.500 C 150.475 454.662, 147.643 459.533, 144.385 461.667 C 142.156 463.128, 141.634 463.056, 136.598 460.592 C 129.447 457.093, 124.463 450.450, 121.586 440.584 L 120.396 436.500 118.671 439.116 C 116.162 442.921, 114.817 460.531, 116.045 473.496 C 118.385 498.194, 127.532 520.724, 142.360 538.312 C 146.848 543.636, 156.692 551.822, 161.500 554.228 C 165.090 556.025, 176.550 557.789, 191.250 558.809 C 201.100 559.492, 203.666 559.147, 201 557.500 C 199.341 556.475, 199.871 552.264, 201.750 551.540 C 202.995 551.060, 204.366 551.864, 206.500 554.322 C 210.973 559.477, 212.731 560, 225.589 560 C 236.805 560, 237.240 559.923, 235.684 558.203 C 233.174 555.430, 227 541.445, 227 538.534 C 227 537.106, 227.563 535.721, 228.250 535.457 C 229.986 534.789, 229.921 517.533, 228.166 513.356 C 226.957 510.478, 226.534 510.253, 223.172 510.701 C 213.601 511.978, 198.549 494.487, 191.370 473.745 C 189.654 468.787, 188.708 463.501, 188.373 457 C 187.776 445.410, 188.728 443.077, 194.852 441.130 C 197.937 440.149, 198.853 439.453, 198.080 438.680 C 196.705 437.305, 196.684 434.314, 198.043 433.473 C 198.617 433.119, 203.694 434.885, 209.326 437.399 C 223.756 443.839, 231.104 444.983, 237.370 441.762 C 239.058 440.895, 238.701 440.249, 233.717 435.150 C 227.523 428.814, 216 412.457, 216 410 C 216 409.120, 216.563 407.833, 217.250 407.141 C 218.252 406.131, 218.165 406.009, 216.811 406.524 C 215.477 407.032, 214.979 406.403, 214.439 403.527 C 212.640 393.935, 216.820 382.290, 225.805 371.868 C 231.962 364.726, 234.792 359.117, 232.856 357.890 C 230.186 356.198, 222.766 356.993, 216.974 359.592 C 210.343 362.568, 207.639 362.455, 207.173 359.182 C 206.667 355.631, 209.399 352.441, 215.501 349.456 C 220.239 347.138, 221.908 346.814, 226.616 347.300 C 229.662 347.614, 233.300 348.622, 234.701 349.539 C 236.101 350.457, 236.967 350.755, 236.625 350.202 C 236.283 349.649, 238.106 344.990, 240.675 339.848 C 244.558 332.078, 246.878 328.976, 254.423 321.468 C 268.451 307.510, 281.409 301.583, 298 301.536 C 313.683 301.491, 317.149 303.040, 330.454 316.041 C 337.355 322.784, 343.301 327.687, 346.053 328.902 C 348.499 329.983, 356.106 331.806, 362.958 332.955 C 376.510 335.227, 383.538 337.900, 389.329 342.984 C 391.385 344.789, 393.200 346.094, 393.362 345.883 C 393.524 345.672, 394.935 343.783, 396.497 341.684 C 400.936 335.721, 408.933 332.333, 411.800 335.200 C 413.750 337.150, 413.262 338.944, 407.664 350.407 C 402.340 361.307, 401.279 366.875, 404.780 365.531 C 405.619 365.209, 409.140 364.234, 412.606 363.363 C 418.546 361.871, 418.883 361.630, 418.501 359.140 C 418.278 357.688, 417.849 347.950, 417.547 337.500 C 416.722 308.962, 413.788 294.202, 405.917 279 C 403.782 274.875, 399.951 269.119, 397.404 266.210 C 391.733 259.729, 383.949 253.651, 382.798 254.802 C 382.330 255.270, 382.464 258.065, 383.096 261.013 C 385.424 271.866, 381.591 286.285, 375.104 291.081 C 373.397 292.343, 372 294.206, 372 295.219 C 372 297.970, 369.272 298.500, 365.172 296.545 C 363.167 295.589, 359.046 294.597, 356.013 294.341 C 346.963 293.576, 346 293.215, 346 290.588 C 346 287.561, 348.045 286.804, 354.066 287.603 L 358.877 288.241 357.502 283.672 C 356.746 281.159, 355.650 270.193, 355.067 259.302 C 353.492 229.861, 349.072 213.345, 338.527 197.498 C 332.435 188.342, 320.070 176.171, 310.508 169.918 C 304.354 165.893, 302.552 165.298, 301.531 166.949 M 487.677 306.741 C 484.911 319.612, 478.647 327, 470.500 327 C 466.939 327, 461.298 324.263, 459.465 321.647 C 457.001 318.129, 457.785 321.958, 460.466 326.532 C 463.514 331.734, 468.518 334.286, 475.670 334.286 C 485.525 334.286, 491.925 326.485, 492.778 313.436 C 493.147 307.783, 492.853 305.621, 491.307 302.607 L 489.375 298.841 487.677 306.741 M 73.810 362.778 C 62.260 385.278, 54.922 402.828, 55.049 407.648 C 55.076 408.666, 56.143 406.787, 57.420 403.471 C 61.181 393.708, 64.649 387.489, 74.858 372.207 C 80.161 364.268, 85.256 356.587, 86.181 355.136 C 87.548 352.991, 87.735 351.155, 87.181 345.278 L 86.500 338.055 73.810 362.778 M 460.902 386.250 C 460.165 388.038, 457.773 391.445, 455.587 393.822 C 452.199 397.506, 451.567 398.899, 451.308 403.258 C 450.795 411.861, 449.899 412.763, 424.268 430.458 C 411.589 439.212, 411.340 439.455, 413.364 441.094 C 415.117 442.513, 415.232 443.015, 414.117 444.359 C 410.975 448.145, 400.099 447.310, 383.404 442 C 374.635 439.210, 369.976 438.990, 370.022 441.367 C 370.062 443.437, 373.846 450.913, 376.693 454.546 C 380.744 459.716, 390.472 466.782, 395.324 468.079 C 397.621 468.693, 400.030 469.629, 400.677 470.160 C 402.178 471.389, 401.478 476.716, 398.796 484.470 C 396.954 489.798, 396.803 491.844, 397.393 503.470 C 398.103 517.477, 397.098 523.966, 392.967 532.064 C 391.155 535.617, 391.093 536.236, 392.420 537.563 C 395.048 540.191, 391.534 545.858, 381.141 555.750 L 374.575 562 385.312 562 C 395.614 562, 396.335 561.856, 403.070 558.465 C 406.931 556.520, 410.329 554.305, 410.622 553.542 C 411.830 550.395, 417 550.781, 417 554.018 C 417 555.010, 415.615 556.987, 413.923 558.411 L 410.847 561 416.173 560.984 C 425.961 560.956, 448.970 557.182, 452.442 555.036 C 464.102 547.830, 477.115 526.874, 485.377 502 C 490.090 487.809, 491.384 477.814, 490.731 460.623 C 489.978 440.759, 486.094 424.309, 477.606 405.023 C 472.961 394.470, 465.658 383, 463.584 383 C 462.846 383, 461.639 384.462, 460.902 386.250 M 261.438 403.101 C 260.582 404.485, 263.647 407.594, 268.650 410.417 L 272.500 412.590 282.250 409.623 C 287.613 407.991, 292 406.343, 292 405.960 C 292 403.070, 263.126 400.369, 261.438 403.101 M 313 412.183 C 311.625 412.700, 303.300 415.320, 294.500 418.006 C 285.700 420.692, 273.100 425.148, 266.500 427.909 L 254.500 432.929 259.661 432.965 C 276.193 433.078, 317.911 417.626, 315.845 412.155 C 315.639 411.610, 314.495 411.621, 313 412.183" stroke="none" fill="#febd3f" fill-rule="evenodd"/><path d="M 256.086 28.274 C 255.610 29.525, 255.183 33.249, 255.137 36.549 C 254.918 52.121, 250.143 66.172, 237.484 88.500 C 221.945 115.906, 219.803 123.887, 221.826 146.821 C 224.524 177.394, 222.422 189.765, 213.734 194.444 C 209.656 196.640, 207.268 196.252, 204.861 193 C 203.341 190.946, 202.839 187.466, 202.051 173.500 C 201.523 164.150, 200.569 154.700, 199.931 152.500 C 196.716 141.408, 187.903 129, 183.239 129 L 180.711 129 181.558 136.750 C 182.023 141.012, 182.374 148.325, 182.337 153 C 182.209 169.384, 174.331 186.972, 150.552 223.958 C 123.153 266.574, 116.637 281.403, 114.061 307 C 113.132 316.235, 113.307 319.812, 115.995 346.500 C 117.423 360.673, 116.662 366.492, 112.886 370.268 C 110.714 372.440, 109.464 372.972, 107.757 372.454 C 103.382 371.124, 99.124 366.954, 96.328 361.258 C 93.615 355.734, 93.487 354.810, 93.174 338.500 C 92.995 329.150, 92.421 321.061, 91.898 320.524 C 90.694 319.288, 85.369 325.349, 84.508 328.935 C 84.169 330.346, 78.312 342.124, 71.492 355.109 C 58.689 379.484, 54.209 389.514, 51.608 399.627 C 46.485 419.542, 46.463 444.749, 51.550 466.952 C 57.592 493.323, 68.145 513.150, 82.890 525.834 C 109.982 549.138, 144.928 561.187, 195 564.488 C 205.356 565.171, 265.511 566.725, 317 567.640 C 355.155 568.318, 421.001 566.604, 436 564.542 C 472.779 559.486, 495.839 549.239, 515.926 529.026 C 527.774 517.105, 534.689 503.466, 539.043 483.432 C 541.773 470.873, 542.919 433.459, 541.041 418.210 C 536.952 385.013, 524.913 352.655, 498.919 305 C 489.542 287.809, 486.261 283, 483.908 283 C 482.038 283, 481.942 283.376, 482.689 287.750 C 484.866 300.496, 481.859 313.282, 475.339 319.007 C 470.526 323.233, 467.052 322.781, 463.575 317.475 C 460.042 312.082, 459.694 303.981, 462.079 282.588 C 464.080 264.630, 464.180 261.458, 463.094 250.261 C 460.218 220.600, 451.740 204.093, 424.437 175 C 417.985 168.125, 410.587 159.967, 407.996 156.870 C 403.275 151.227, 397.764 139.711, 396.486 132.819 C 395.734 128.763, 394.218 127.621, 391.898 129.361 C 390.644 130.302, 390.391 133.364, 390.440 147 C 390.509 166.099, 389.219 172.048, 383.577 178.639 C 378.836 184.178, 375.163 185.653, 371.205 183.606 C 366.375 181.108, 364.265 175.237, 361.986 157.960 C 359.080 135.928, 356.901 129.167, 348.428 115.878 C 339.912 102.521, 326.950 90.576, 299.405 70.700 C 279.026 55.995, 268.622 45.002, 261.120 30.250 C 258.690 25.470, 257.352 24.945, 256.086 28.274 M 326.900 35.624 C 325.860 36.880, 325.519 40.424, 325.575 49.407 C 325.638 59.491, 326.028 62.467, 327.923 67.319 C 330.235 73.239, 332.268 75.132, 334.220 73.180 C 335.001 72.399, 334.637 70.607, 332.924 66.797 C 330.811 62.098, 330.535 59.984, 330.477 48.068 C 330.410 34.469, 329.752 32.180, 326.900 35.624 M 259.039 47.172 C 258.334 51.117, 256.499 58.065, 254.962 62.613 C 252.133 70.982, 242.431 91.189, 237.463 99.058 C 228.212 113.713, 225.354 124.920, 226.387 142.487 C 228.237 173.937, 228.243 175.358, 226.564 182.500 C 225.659 186.350, 223.727 191.222, 222.270 193.326 C 218.857 198.258, 212.846 201.399, 208.246 200.653 C 200.248 199.355, 198.240 194.267, 197.043 172.266 C 196.026 153.566, 194.382 147.168, 189.006 140.979 L 185.984 137.500 186.721 140.500 C 187.126 142.150, 187.392 147.550, 187.312 152.500 C 187.023 170.478, 179.489 187.869, 156.537 223.540 C 136.297 254.998, 129.740 267.006, 124.345 282.500 C 118.393 299.591, 117.099 313.594, 119.539 334.500 C 121.638 352.472, 121.841 363.228, 120.174 368.103 C 117.498 375.928, 110.047 379.256, 103.005 375.773 C 94.224 371.428, 89.176 361.317, 88.265 346.250 C 87.958 341.162, 87.429 337, 87.091 337 C 86.218 337, 64.874 377.985, 61.052 387 C 54.768 401.823, 53.807 406.830, 53.267 427.597 C 52.677 450.230, 54.089 460.961, 60.064 479.254 C 65.791 496.790, 70.649 505.347, 81.219 516.515 C 103.379 539.930, 134.598 553.178, 180 558.435 C 187.425 559.294, 195.611 559.998, 198.191 559.999 L 202.881 560 201.520 557.376 C 200.771 555.932, 200.396 554.132, 200.686 553.376 C 201.479 551.310, 204.777 551.721, 205.492 553.974 C 206.940 558.537, 210.665 559.735, 224.750 560.167 C 232.037 560.391, 238 560.275, 238 559.909 C 238 559.544, 237.251 558.627, 236.335 557.872 C 233.600 555.618, 227.864 542.018, 228.199 538.583 C 228.705 533.401, 231.181 534.889, 233.683 541.879 C 236.859 550.752, 238.969 554.032, 243.589 557.279 C 246.928 559.626, 249.133 560.231, 257.041 560.976 C 271.486 562.335, 299.870 563.153, 331.824 563.131 L 360.702 563.112 367.101 559.362 C 374.934 554.772, 382.058 548.233, 386.212 541.822 C 389.348 536.983, 391.596 535.783, 392.604 538.410 C 393.593 540.988, 389.841 546.410, 381.208 554.879 L 372.667 563.258 384.583 562.805 C 395.565 562.388, 396.993 562.100, 402.789 559.142 C 406.248 557.376, 409.835 555.047, 410.761 553.966 C 411.687 552.885, 413.244 552, 414.222 552 C 417.068 552, 416.327 555.547, 412.874 558.452 C 411.155 559.899, 410 561.333, 410.306 561.639 C 411.308 562.642, 436.225 559.913, 448.500 557.456 C 476.001 551.953, 492.908 543.862, 508.873 528.565 C 521.372 516.589, 526.613 508.331, 531.447 493 C 535.697 479.518, 537.199 466.876, 537.148 445 C 537.068 410.150, 532.558 388.596, 518.343 355.127 C 513.446 343.595, 490.077 298, 489.064 298 C 488.722 298, 487.943 301.170, 487.333 305.045 C 485.969 313.708, 482.460 320.773, 478.043 323.750 C 471.515 328.150, 462.119 325.791, 458.299 318.794 C 456.708 315.880, 456.551 313.481, 456.938 298 C 457.179 288.375, 457.373 271.050, 457.371 259.500 C 457.366 239.558, 457.230 238.057, 454.676 229.712 C 449.174 211.733, 441.641 200.402, 420.300 178 C 405.821 162.802, 399.952 155.713, 398.055 151.134 C 396.542 147.479, 394.687 146.905, 395.554 150.359 C 395.879 151.656, 395.674 156.106, 395.098 160.249 C 392.447 179.313, 385.360 189, 374.064 189 C 368.887 189, 365.578 186.871, 362.571 181.608 C 359.624 176.450, 358.389 170.905, 356.508 154.397 C 354.870 140.018, 353.777 136.161, 348.517 126.191 C 339.856 109.777, 326.949 96.674, 301.597 78.554 C 282.586 64.967, 271.813 55.399, 265.386 46.392 C 262.877 42.876, 260.711 40, 260.572 40 C 260.434 40, 259.744 43.227, 259.039 47.172 M 339.850 47.107 C 338.885 50.326, 338.875 53.502, 339.801 61.790 C 341.535 77.309, 344.338 82.682, 357.201 95.146 C 362.793 100.566, 368.174 105, 369.157 105 C 371.601 105, 374.096 96.162, 374.151 87.308 C 374.200 79.519, 372.181 72.661, 367.805 65.756 C 364.198 60.063, 345.546 43, 342.931 43 C 341.630 43, 340.714 44.221, 339.850 47.107 M 344 56.290 C 344 64.080, 346.274 73.083, 349.732 78.985 C 351.177 81.451, 355.740 86.753, 359.872 90.766 C 368.648 99.289, 369.373 99.041, 369.452 87.481 C 369.522 77.184, 365.340 69.140, 354.254 58.250 C 349.634 53.712, 345.438 50, 344.927 50 C 344.417 50, 344 52.830, 344 56.290 M 166.890 134.750 C 166.830 135.162, 166.693 142.700, 166.586 151.500 C 166.366 169.648, 165.152 174.483, 158.060 185.457 C 153.533 192.462, 152.754 195.274, 155.200 195.777 C 157.677 196.287, 165.298 184.235, 168.654 174.500 C 171.120 167.347, 171.417 165.070, 171.456 153 C 171.503 138.453, 170.806 134, 168.481 134 C 167.666 134, 166.951 134.338, 166.890 134.750 M 419 151.096 C 419 154.996, 428.005 166, 431.196 166 C 433.942 166, 433.363 163.169, 429.750 158.924 C 427.962 156.824, 425.453 153.732, 424.174 152.053 C 421.485 148.523, 419 148.064, 419 151.096 M 439.500 174 C 438.629 175.410, 439.697 176.870, 445.312 181.946 C 459.086 194.398, 469.120 214.101, 471.536 233.446 C 472.093 237.903, 472.591 239, 474.056 239 C 476.869 239, 477.009 237.983, 475.438 228.927 C 471.814 208.032, 465.973 196.574, 450.867 180.725 C 443.928 173.444, 440.937 171.675, 439.500 174 M 139.325 210.250 C 134.718 215.036, 132.616 218.569, 133.513 220.021 C 134.755 222.031, 136.976 220.864, 140.683 216.250 C 142.782 213.637, 145.063 211.140, 145.750 210.700 C 146.438 210.260, 147 209.023, 147 207.950 C 147 204.704, 143.717 205.688, 139.325 210.250 M 346.380 289.452 C 345.401 292.003, 346.774 292.691, 354.066 293.302 C 358.285 293.656, 362.815 294.744, 365.164 295.968 C 369.432 298.193, 371 297.948, 371 295.055 C 371 290.482, 347.994 285.246, 346.380 289.452 M 216.518 302.009 C 212.678 303.659, 208.416 306.129, 207.047 307.498 C 204.809 309.737, 204.713 310.141, 206.095 311.524 C 207.477 312.906, 208.027 312.790, 211.566 310.366 C 213.730 308.883, 218.425 306.640, 222 305.380 C 226.735 303.712, 228.500 302.602, 228.500 301.295 C 228.500 298.440, 224.232 298.694, 216.518 302.009 M 402.366 336.893 C 398.180 339.479, 395.538 343.171, 387.259 358 C 375.872 378.393, 375.186 379.318, 370.058 381.184 C 339.811 392.189, 337.059 392.978, 335.979 390.961 C 334.249 387.728, 329.804 386.165, 320.429 385.494 C 307.814 384.591, 297.115 383.212, 285.199 380.953 C 265.791 377.273, 256.698 379.041, 252.988 387.216 C 250.615 392.445, 250.589 393.254, 252.583 399.966 C 253.760 403.932, 255.514 406.644, 259.437 410.568 L 264.709 415.840 248.713 421 C 239.915 423.838, 232.440 425.787, 232.102 425.330 C 231.764 424.874, 228.900 420.563, 225.738 415.750 C 220.385 407.604, 217.992 405.585, 216.518 407.971 C 215.218 410.075, 226.545 427.397, 234.341 435.225 C 239.811 440.718, 239.837 442.565, 234.461 443.573 C 228.568 444.679, 221.417 443.324, 212.681 439.448 C 199.111 433.426, 199.159 433.441, 197.838 434.762 C 196.917 435.683, 197.042 436.389, 198.389 437.877 C 200.332 440.024, 199.952 440.453, 195.216 441.469 C 190.296 442.525, 188.676 445.781, 188.832 454.303 C 189.148 471.507, 196.441 489.230, 208.392 501.833 C 214.644 508.426, 223.549 512.157, 225.500 509 C 225.840 508.450, 227.165 508, 228.445 508 C 231.132 508, 250.839 502.114, 272.500 494.842 C 288.054 489.621, 318.814 477.501, 351.304 463.793 L 370.108 455.860 377.056 462.414 C 385.079 469.983, 392.684 474.258, 397.322 473.807 C 401.833 473.369, 402.163 470.410, 397.806 469.470 C 386.447 467.017, 370.857 451.704, 369.770 441.931 C 369.540 439.857, 369.971 439.454, 372.708 439.190 C 374.473 439.019, 380.323 440.303, 385.708 442.042 C 397.628 445.892, 410.787 447.166, 412.858 444.671 C 414.339 442.886, 413.611 441, 411.441 441 C 408.497 441, 410.356 439.297, 422.281 431.072 C 447.007 414.018, 446.688 414.276, 449.039 409.419 C 450.973 405.424, 451.192 403.801, 450.654 397.441 C 450.312 393.395, 448.387 383.509, 446.375 375.472 C 441.474 355.894, 442.825 356.642, 421.768 361.845 C 412.802 364.060, 404.173 366.364, 402.594 366.964 C 401.015 367.565, 399.530 367.864, 399.295 367.629 C 399.060 367.394, 401.840 360.976, 405.473 353.368 C 409.106 345.759, 411.948 338.626, 411.789 337.517 C 411.390 334.733, 406.396 334.402, 402.366 336.893 M 401.780 344.750 C 399.589 347.072, 390.567 362.165, 376.524 387 C 374.413 390.734, 372.786 392.500, 371.457 392.500 C 369.931 392.500, 369.543 391.880, 369.697 389.684 C 369.826 387.840, 369.481 387.035, 368.697 387.351 C 363.056 389.623, 292.651 412.644, 270.500 419.460 C 255.100 424.199, 241.235 428.575, 239.690 429.184 L 236.880 430.292 240.297 433.896 C 242.176 435.878, 243.961 438.215, 244.263 439.088 C 245.079 441.446, 242.235 446.572, 239.392 447.867 C 234.882 449.922, 224.171 449.185, 215.396 446.215 C 208.029 443.721, 206.903 443.585, 203.001 444.715 C 200.641 445.398, 198.503 446.164, 198.250 446.417 C 197.997 446.670, 199.418 448.306, 201.408 450.054 C 205.452 453.604, 215.495 468.200, 218.430 474.792 C 219.865 478.013, 220.735 478.910, 221.921 478.388 C 226.715 476.277, 265.814 464.980, 267.500 465.218 C 268.723 465.390, 269.500 466.261, 269.500 467.458 C 269.500 469.755, 268.627 470.101, 247 476.372 C 238.475 478.843, 229.618 481.683, 227.319 482.683 C 223.142 484.498, 223.139 484.504, 224.473 487.637 L 225.809 490.774 232.654 488.503 C 238.644 486.515, 239.648 486.417, 240.681 487.713 C 242.591 490.108, 241.352 491.355, 234.483 493.945 C 228.271 496.288, 228 496.531, 228 499.763 C 228 502.506, 228.326 503.037, 229.750 502.613 C 230.713 502.326, 238.475 500.042, 247 497.538 C 266.436 491.829, 275.115 488.791, 301.966 478.294 C 319.003 471.634, 365.555 452.384, 366.763 451.500 C 366.908 451.394, 366.345 449.677, 365.513 447.686 C 363.345 442.496, 363.577 437.423, 366.099 434.901 C 368.718 432.282, 372.913 432.721, 387.913 437.185 C 395.849 439.546, 398.704 440.023, 399.913 439.187 C 400.786 438.584, 403.750 436.766, 406.500 435.147 C 409.250 433.528, 418.475 427.319, 427 421.348 C 444.845 408.850, 446.744 406.451, 445.328 398.193 L 444.500 393.366 431 399.277 C 423.575 402.529, 416.551 405.412, 415.391 405.684 C 412.358 406.396, 411.573 403.476, 414.152 401.073 C 416.106 399.252, 440.524 389, 442.907 389 C 444.385 389, 444.282 386.825, 442.500 380.404 C 441.675 377.432, 440.312 372.525, 439.472 369.500 C 438.283 365.218, 437.509 364, 435.979 364 C 432.569 364, 405.725 371.233, 400.402 373.587 C 395.653 375.686, 395.145 376.264, 392.996 382.012 C 390.530 388.604, 388.739 390.167, 386.367 387.796 C 385.064 386.493, 385.531 384.856, 390.332 373.909 C 393.324 367.084, 397.823 357.113, 400.329 351.750 C 402.834 346.387, 404.769 342, 404.629 342 C 404.489 342, 403.207 343.238, 401.780 344.750 M 350.594 345.266 C 345.212 348.344, 342.260 352.403, 343.935 354.422 C 345.044 355.758, 345.791 355.633, 350.275 353.361 C 356.429 350.242, 360.832 350.537, 366.767 354.464 C 374.468 359.561, 379.007 355.716, 372.844 349.316 C 366.519 342.748, 357.780 341.157, 350.594 345.266 M 215.359 350.051 C 210.296 352.557, 208.132 354.839, 207.773 358.050 C 207.376 361.605, 210.945 361.747, 218.252 358.467 C 224.830 355.515, 231.106 355.529, 235.650 358.506 C 240.614 361.759, 243.759 358.514, 239.778 354.247 C 233.896 347.942, 223.298 346.121, 215.359 350.051 M 264.854 384.181 C 260.252 385.403, 257.078 388.743, 256.370 393.107 L 255.819 396.500 271.160 396.501 L 286.500 396.502 294.426 400.267 L 302.352 404.032 317.176 399.312 C 325.329 396.716, 332 394.250, 332 393.831 C 332 392.030, 327.291 390.896, 316.273 390.043 C 303.652 389.066, 293.692 387.728, 282.500 385.505 C 271.657 383.352, 268.786 383.136, 264.854 384.181 M 260.646 401.870 C 258.922 402.548, 258.983 402.827, 261.515 405.836 C 263.013 407.615, 265.647 409.793, 267.369 410.675 C 269.091 411.557, 270.738 412.645, 271.029 413.091 C 271.695 414.113, 294 407.209, 294 405.982 C 294 405.486, 291.028 404.162, 287.395 403.040 C 280.668 400.962, 264.726 400.265, 260.646 401.870 M 396.250 410.175 C 392.867 412.077, 391 413.786, 391 414.980 C 391 417.936, 393.102 417.917, 399.124 414.908 C 404.727 412.109, 406.098 410.624, 405.269 408.250 C 404.612 406.364, 402.057 406.909, 396.250 410.175 M 33.691 431.695 C 31.924 434.567, 30.814 446.338, 31.239 457.698 C 31.650 468.661, 32.177 471.864, 34.909 480 C 37.782 488.552, 44.689 502.994, 47.084 505.457 C 47.673 506.063, 48.584 505.844, 49.568 504.861 C 50.972 503.456, 50.599 502.263, 45.672 492.404 C 36.001 473.050, 33.936 463.295, 35.995 446.675 C 37.763 432.395, 37.756 431.606, 35.843 431.222 C 34.932 431.039, 33.964 431.252, 33.691 431.695 M 554.374 439.250 C 558.117 464.215, 556.383 478.344, 547.385 496.225 C 543.357 504.228, 543.112 506.266, 546.230 505.820 C 547.835 505.590, 549.279 503.817, 551.376 499.500 C 558.952 483.905, 561.540 471.244, 560.675 454 C 559.966 439.869, 558.723 435, 555.821 435 C 553.935 435, 553.797 435.405, 554.374 439.250 M 193.456 456.750 C 194.530 465.750, 196.851 473.754, 200.461 480.913 C 206.729 493.343, 216.836 505, 221.344 505 C 223.328 505, 223.323 505.188, 221.553 496.837 C 219.852 488.812, 214.866 477.735, 208.582 468.021 C 203.742 460.539, 195.429 451, 193.748 451 C 193.144 451, 193.032 453.200, 193.456 456.750 M 286 457.082 C 278.318 460.034, 275.726 462.123, 276.676 464.597 C 277.465 466.654, 279.598 466.282, 288.470 462.539 C 296.797 459.027, 297.992 457.900, 295.972 455.466 C 294.490 453.681, 295.115 453.580, 286 457.082 M 532.526 523.533 C 528.877 527.986, 528.424 531, 531.402 531 C 533.529 531, 540.341 522.331, 539.643 520.511 C 538.636 517.887, 536.361 518.853, 532.526 523.533" stroke="none" fill="#3f3226" fill-rule="evenodd"/><path d="M 261.978 50.100 C 261.955 58.208, 259.407 71.137, 255.987 80.500 C 254.782 83.800, 250.047 94.375, 245.465 104 C 240.883 113.625, 236.422 124.200, 235.551 127.500 C 234.680 130.800, 233.522 140.025, 232.978 148 C 231.919 163.500, 230.490 173.357, 228.484 179 C 227.800 180.925, 226.672 184.387, 225.978 186.694 C 222.676 197.673, 210.958 204.479, 203.627 199.675 C 199.070 196.689, 197.717 191.695, 196.807 174.500 C 196.342 165.700, 195.603 156.925, 195.165 155 C 194.461 151.906, 194.283 152.428, 193.630 159.500 C 192.120 175.841, 188.012 188.481, 179.897 201.756 C 173.974 211.444, 160.328 228.484, 150.248 238.779 C 138.173 251.111, 127.077 271.878, 121.918 291.800 C 119.012 303.018, 118.334 323.426, 120.384 337.960 C 123.596 360.736, 122.017 371.514, 114.808 376.032 C 106.454 381.267, 93.254 372.540, 89.947 359.595 C 88.137 352.509, 88.135 352.508, 84.913 357.124 C 68.885 380.088, 61.521 392.717, 56.415 406 C 53.622 413.265, 53.531 414.064, 53.530 431.500 C 53.529 457.032, 57.118 474.529, 66.455 494.500 C 80.080 523.644, 110.745 544.450, 153.500 553.560 C 157.350 554.380, 161.400 555.281, 162.500 555.562 C 163.600 555.843, 163.150 555.318, 161.500 554.396 C 142.819 543.950, 126.247 519.841, 119.415 493.173 C 114.682 474.696, 114.284 445.769, 118.671 439.116 L 120.396 436.500 121.586 440.584 C 124.463 450.450, 129.447 457.093, 136.598 460.592 C 141.634 463.056, 142.156 463.128, 144.385 461.667 C 147.643 459.533, 150.475 454.662, 152.622 447.500 C 154.580 440.967, 154.853 429.106, 153.977 388.500 C 153.553 368.855, 153.674 366.951, 155.843 359 C 160.784 340.895, 168.731 322.480, 173.564 317.940 L 175.942 315.706 177.908 318.103 C 178.990 319.421, 180.157 321.625, 180.501 323 C 181.578 327.307, 186.184 333.024, 190.716 335.679 C 200.013 341.128, 208.704 338.488, 219.361 326.976 C 227.361 318.336, 232.754 306.584, 239.466 283.164 C 248.507 251.622, 250.308 246.918, 259.060 232 C 266.006 220.161, 271 216.683, 271 223.686 C 271 228.761, 273.838 239.854, 276.090 243.578 C 279.439 249.118, 286.790 250.645, 292.715 247.033 C 299.591 242.840, 305.375 229.075, 307.226 212.500 C 308.149 204.230, 308.065 200.584, 306.741 191.424 C 305.859 185.332, 304.195 177.547, 303.042 174.123 C 299.860 164.680, 301.278 163.882, 310.508 169.918 C 320.070 176.171, 332.435 188.342, 338.527 197.498 C 348.987 213.218, 353.502 229.938, 354.999 258.500 C 356.013 277.849, 357.257 286.236, 359.338 287.742 C 359.977 288.204, 362.300 289.182, 364.500 289.914 C 366.700 290.647, 369.198 291.855, 370.052 292.599 C 371.382 293.758, 372.112 293.532, 375.159 291.020 C 381.862 285.495, 385.443 271.957, 383.096 261.013 C 382.464 258.065, 382.330 255.270, 382.798 254.802 C 383.949 253.651, 391.733 259.729, 397.404 266.210 C 399.951 269.119, 403.782 274.875, 405.917 279 C 413.830 294.283, 416.732 308.981, 417.567 338 C 418.296 363.354, 417.948 361.947, 423.237 360.914 C 425.582 360.455, 429.072 359.612, 430.993 359.040 C 436.371 357.439, 439.461 357.789, 441.679 360.250 C 443.793 362.595, 449.577 383.631, 450.689 393.020 L 451.293 398.120 455.039 394.462 C 457.099 392.451, 459.576 389.049, 460.544 386.902 C 461.512 384.756, 462.894 383, 463.615 383 C 465.662 383, 472.989 394.534, 477.606 405.023 C 486.094 424.309, 489.978 440.759, 490.731 460.623 C 491.384 477.814, 490.090 487.809, 485.377 502 C 478.224 523.536, 468.521 540.599, 457.764 550.558 L 451.556 556.306 455.528 555.581 C 462.047 554.392, 476.775 549.194, 484.239 545.448 C 497.423 538.832, 506.596 531.718, 515.738 521.021 C 530.653 503.570, 536.841 481.480, 536.755 446 C 536.648 401.584, 528.833 373.783, 502.177 323 L 493.516 306.500 492.877 313.556 C 491.685 326.721, 485.406 334.286, 475.670 334.286 C 464.734 334.286, 459.808 329.247, 456.507 314.685 C 454.812 307.206, 454.812 305.943, 456.510 285.236 C 459.357 250.527, 457.447 233.787, 448.555 215.500 C 443.215 204.518, 436.855 196.006, 423.605 182.106 C 410.022 167.856, 403.856 161.061, 401.433 157.672 L 399.412 154.845 400.055 161.172 C 401.978 180.065, 394.517 193.712, 381.684 194.776 C 377.586 195.116, 375.382 194.725, 372.175 193.089 C 369.879 191.918, 368 190.561, 368 190.074 C 368 189.588, 366.432 187.313, 364.517 185.020 C 360.367 180.053, 358.355 173.799, 356.969 161.559 C 354.866 142.988, 353.849 138.591, 349.555 129.500 C 347.217 124.550, 343.253 117.795, 340.746 114.488 C 333.512 104.946, 318.556 91.166, 305 81.553 C 281.774 65.084, 272.050 56.673, 265.165 47.100 L 262 42.700 261.978 50.100 M 351.776 59.389 C 350.833 64.323, 351.938 72.310, 354.653 80.186 C 356.749 86.270, 358.308 88.864, 362.128 92.626 C 364.782 95.240, 367.302 97.030, 367.727 96.604 C 368.152 96.177, 368.489 91.930, 368.476 87.164 C 368.455 79.712, 368.073 77.774, 365.741 73.313 C 364.250 70.460, 360.617 65.534, 357.669 62.366 L 352.308 56.607 351.776 59.389 M 223 298.971 C 213.202 302.105, 205 307.176, 205 310.099 C 205 313.172, 207.706 313.456, 211.775 310.811 C 216.121 307.986, 225.223 304, 227.328 304 C 229.641 304, 230.357 300.734, 228.363 299.276 C 226.419 297.854, 226.482 297.858, 223 298.971 M 262.500 385.634 C 258.403 387.934, 257.069 389.919, 257.032 393.769 C 257.002 396.854, 257.155 396.996, 259.750 396.291 C 261.262 395.881, 267.450 395.584, 273.500 395.632 C 283.102 395.707, 285.326 396.065, 291 398.443 C 294.575 399.942, 298.740 401.680, 300.256 402.305 C 302.629 403.285, 304.892 402.821, 316.584 398.958 C 324.049 396.491, 330.154 394.029, 330.152 393.486 C 330.147 392.102, 325.841 391.353, 307.500 389.545 C 298.700 388.677, 288.575 387.291, 285 386.464 C 274.293 383.989, 265.977 383.682, 262.500 385.634" stroke="none" fill="#ed713c" fill-rule="evenodd"/></svg>
